<svg id="Layer_1" data-name="Layer 1" xmlns="http://www.w3.org/2000/svg" viewBox="0 0 333.61 480.6"><defs><style>.cls-1{fill:#1d1d1b;}.cls-1,.cls-2,.cls-3,.cls-4,.cls-5,.cls-6,.cls-7{fill-rule:evenodd;}.cls-2{fill:#ba657b;}.cls-3{fill:#f3a4ba;}.cls-4{fill:#f1a6a1;}.cls-5{fill:#f9ceda;}.cls-6{fill:#f6cdc8;}.cls-7{fill:#e66777;}</style></defs><path class="cls-1" d="M528.9,68.4l-.9-.3.6,1.8,3.6,6.3a23,23,0,0,0,4.8,5.7.56.56,0,0,0,.9,0l.3-.9-9.3-12.6Z" transform="translate(-253.42 -58.5)"/><path class="cls-1" d="M551.7,79.2l.9-.6,6-16.8c-3.6,6.6-6.3,12.3-7.5,17.1l.6.3Z" transform="translate(-253.42 -58.5)"/><path class="cls-1" d="M570.6,70.8h-.9L564,75.9c-2.1,1.8-3.6,3.6-3.9,5.7.6.6.9.6.9.6l9.6-11.4Z" transform="translate(-253.42 -58.5)"/><path class="cls-2" d="M455.4,128.1l-2.1.6v.9a46.6,46.6,0,0,1-10.8,2.4l-5.7,2.4,2.4-.3,13.5-3a10.59,10.59,0,0,0-.9,4.2l2.1-.6.3-1.8.9.9,2.7-.9-2.7-2.4.3-2.4Z" transform="translate(-253.42 -58.5)"/><path class="cls-1" d="M453.3,128.7l2.1-.6,10.5-1.2.6-.9-.6-.3-10.2.6-2.1.3a62.74,62.74,0,0,0-17.1,5.4l-3.9,2.1a96.62,96.62,0,0,0-13.5,9.9l-.9,1.5a84.72,84.72,0,0,1,18.6-11.1l5.7-2.4.3-.3,10.5-3Z" transform="translate(-253.42 -58.5)"/><polygon class="cls-3" points="189.97 84 190.27 84 190.27 83.7 189.97 84 189.97 84"/><polygon class="cls-4" points="190.27 83.7 190.27 84 198.97 84.9 198.37 79.2 190.27 83.7 190.27 83.7"/><path class="cls-3" d="M442.8,131.7l-.3.3a46.6,46.6,0,0,0,10.8-2.4v-.9l-10.5,3Z" transform="translate(-253.42 -58.5)"/><polygon class="cls-5" points="200.47 76.2 201.68 75.3 200.77 74.4 200.47 76.2 200.47 76.2"/><path class="cls-1" d="M417.3,98.7c-2.4-3-4.5-3.9-6-3a11.33,11.33,0,0,0-5.7,7.8l-.9,4.2.3,2.7c.3,1.2,1.5,1.8,3,2.1h.9l3.3-7.2a15.27,15.27,0,0,1,5.1-6.6Z" transform="translate(-253.42 -58.5)"/><path class="cls-1" d="M431.7,100.5l.9-1.5V97.8c-.3-1.2-1.5-2.1-3.3-3a6.57,6.57,0,0,0-6-1.2c-1.2.3-1.8,1.5-1.8,4.2l6.6,1.2,3.6,1.5Z" transform="translate(-253.42 -58.5)"/><path class="cls-2" d="M429.9,127.2a4.44,4.44,0,0,0,0-3.9l-1.2,1.2-.6,1.8c-3.3,4.5-8.1,7.8-15,9.9-.3.3,0,.6,1.2.9,3.9,0,7.8-1.8,11.7-4.8a23.83,23.83,0,0,0,6.6,1.8l3.9-2.1a20.45,20.45,0,0,1-8.7-1.5l2.1-3.3Z" transform="translate(-253.42 -58.5)"/><path class="cls-2" d="M434.1,147.3v-.6h.6l5.1-3.9q-6.3.45-9.9,2.7l-.6.9v.6c0,.6.3.6.9.3l.9-.3.9,2.4,2.1-2.1Z" transform="translate(-253.42 -58.5)"/><path class="cls-2" d="M581.7,96a5.59,5.59,0,0,1,2.1,4.8,38.29,38.29,0,0,0-15,6c-3.3-1.8-6.9-2.1-11.1-1.8a19.83,19.83,0,0,0-10.2,4.5c-1.8,1.8-2.4,3.6-1.8,4.8l1.5,2.1,2.1,1.5-6.9.3a12.24,12.24,0,0,0-6,3.9l-.9,1.2a27.12,27.12,0,0,1,6.6-3l6-.6c-1.2,3-.3,6,2.1,8.4a12.53,12.53,0,0,0,6.9,2.1,23.78,23.78,0,0,0,7.5-1.5l2.7-2.1a3.58,3.58,0,0,0,1.5-2.7l-6.3,3.6-7.5.6a9.61,9.61,0,0,1-4.5-5.1c-.6-.6-.3-1.5,0-2.4l1.5-1.8a20.16,20.16,0,0,1,8.4-3c3.3-.3,6.3.3,8.4,2.1a6.47,6.47,0,0,1,2.7,4.8l-.6,5.4c-1.8,5.1-4.5,7.8-7.8,8.4a31.59,31.59,0,0,1-15,0,87.26,87.26,0,0,1-13.8-4.5l-1.5.9-.6,1.5-3.9,27a144.58,144.58,0,0,1-7.5,25.5,2.19,2.19,0,0,1-2.1,1.8,232,232,0,0,1-54,0l-7.5-8.7a24.83,24.83,0,0,0-8.7-6.6c-1.8-.3-2.7.3-3.3,1.5-.3,3,.6,6.6,2.4,10.2l5.1,9.3q13.95,22.95,18.9,55.8c3.6,19.8,3.6,44.1.9,72.3-8.1,22.5-15.3,49.2-20.7,79.8a268.61,268.61,0,0,0-3.6,41.1c0,9.3.6,23.1,1.2,42l2.1,16.5c1.2,6.6,2.4,11.7,4.2,15.9l1.2.9.3-.3-.9-8.7,1.8-.3h2.1a74,74,0,0,1,29.4-3c10.8.9,20.1,3.6,27.6,8.4a39.81,39.81,0,0,1,9.9,8.1,10.69,10.69,0,0,1-4.5,3A66.56,66.56,0,0,0,498,512.7v.3l11.4,6a55,55,0,0,1,11.1,7.5l-13.2,2.7c-8.4-7.8-16.2-12.9-22.8-15.6h-.3l10.8,7.2c4.2,3,7.8,5.7,10.2,8.7l-30,3.6a294.83,294.83,0,0,1-31.8-.6,10.69,10.69,0,0,1-4.5-1.8,5.1,5.1,0,0,1-1.8-3l-.6-3.9c-2.4-40.8-.3-84.6,6.6-131.4l3-32.7a207.86,207.86,0,0,0,.6-33l-3.9-21.3c-.9-6.9-.3-12.6,2.1-17.4l1.5-3,.9-3.6c6.3-5.4,10.5-10.2,12.9-14.4,1.8-4.5.6-9.9-4.5-15.6l-2.7-2.7-.3-5.7a158,158,0,0,0-15.3-46.2l-1.5-3-1.8-2.4,6-5.1-4.2.9-4.2,1.5a217.76,217.76,0,0,0-45.9,31.2l-2.4,2.4a17.51,17.51,0,0,0-6.6-2.4q.9,1.8,4.5,3.6a33.49,33.49,0,0,1,5.1,3.6,123,123,0,0,0,56.7,24.3l5.1.3c2.4,0,3.9.9,4.5,2.1l3.6,5.1a7.75,7.75,0,0,1,.6,5.7A52.32,52.32,0,0,1,441,281.1a39.9,39.9,0,0,1-21.3,6.9,4.28,4.28,0,0,1-1.8-3.6l-.6-4.2.6-3.6,1.8-3c1.8-1.5,4.5-1.8,7.8-1.2a2.67,2.67,0,0,1,1.5,2.4v3l-1.8,6.6a18.3,18.3,0,0,0,3.6-4.8,9,9,0,0,0,.9-5.4,6.67,6.67,0,0,0-2.7-3.9,27.77,27.77,0,0,1,13.8-9c-3-.3-5.7.6-8.7,2.1a26,26,0,0,0-6.6,6.3h-5.7l-1.5-6,4.8-3.6h11.7a5.38,5.38,0,0,0-2.1-1.5l-2.7-1.2-17.1-4.8a149.29,149.29,0,0,1-16.8-6,90,90,0,0,1-30.6-19.8l-1.2-1.8-.6-2.1c.9-2.4,3-4.8,6-7.2l7.8-5.7c4.8-3.6,12.3-9.9,22.2-18.9,9.3-8.7,16.8-15,22.2-18.6l5.7-.6a5.87,5.87,0,0,1,4.5,2.7l2.1,3q.9-2.25-1.8-6.3l-5.1-3.3-5.7-8.7-1.8,2.1,5.1,6.3c-1.8,0-3.6.9-5.7,2.1l-5.1,3.9-50.4,43.5c-2.7,2.4-3.6,4.8-3,7.5,1.2,4.8,7.5,10.5,18.6,16.8a159.42,159.42,0,0,0,30,13.2l12.6,3.9-3,1.5-2.4,2.1c-2.1-2.1-3.6-3-5.4-3.3a2.17,2.17,0,0,0-1.8,1.2l-1.2,1.8-8.4.9a11,11,0,0,0-6.6,4.8q-2.7,5.4,2.7,12.6c3,3.3,6.9,4.8,11.7,4.8a18.7,18.7,0,0,0,2.7,3.6l1.8.6h1.8c1.5,2.4,4.2,3.3,7.8,2.7l8.1-2.4a56.35,56.35,0,0,0,10.2-3.9c-1.5,3.9-2.7,6.9-3,9.3a19.6,19.6,0,0,0,0,10.2v1.2a44.5,44.5,0,0,0-11.7,3.3c-8.4,4.5-16.5,11.1-24.6,19.8a208.72,208.72,0,0,0-18.9,25.5l-22.8,40.2c-16.2,26.7-33.3,44.7-50.7,54-11.1,6.3-27,8.1-47.1,5.1-3.6,0-6,.9-7.8,3-1.5,1.2-2.1,3.3-1.8,5.7.3,1.2,1.5,2.1,3.6,3.3,5.7,1.8,13.8,3,23.7,3.3,18.3.3,36.3-7.5,53.4-22.5,12-11.1,24.3-26.7,37.2-46.8l15.3-26.7c6.3-10.5,11.7-19.2,16.8-26.1a144.69,144.69,0,0,1,16.8-18A59.45,59.45,0,0,1,441,318l1.2,2.4.9,2.7c.6,12,.6,24.3,0,36.6l-3.9,37.5v5.7A240.88,240.88,0,0,1,417,421.2c-6.3,4.8-14.1,9.9-23.7,15.9l-2.7.6-12.9.6c-4.8.3-8.4,1.8-10.8,4.8-4.5,7.5-6.9,16.5-8.1,27a106.25,106.25,0,0,0,1.2,29.1,113.53,113.53,0,0,0,6.6,19.5,56.29,56.29,0,0,0,12.6,17.1l4.5,2.7,4.8.6,3.3-3.9a44.14,44.14,0,0,0,3.3-16.8L393,486.3c-.3-12.9,1.5-23.1,5.1-31.5A283.37,283.37,0,0,1,435.6,426h.6l-2.4,27.6c-.9,10.5-1.5,19.8-1.2,27.6l.3,39,1.2,8.4c1.2,4.2,4.2,6.6,9,7.5l13.2.6,30-.9,28.5-4.5,8.4-2.4a11.38,11.38,0,0,0,6.3-5.4c0-2.1-1.2-4.2-3.3-6.3l-6-4.8c-12.6-7.8-27-11.1-43.8-9.6-8.7.6-15.6,1.8-21,3.9q-3.6-25.2-3.6-38.7l1.5-51.6,5.7-3.6a14.67,14.67,0,0,0,6.9-7.2l12.3-47.4a221.71,221.71,0,0,0,5.7-39.3l3.9-6.3a51.73,51.73,0,0,0,8.1-22.2,81.68,81.68,0,0,0-.9-24c-4.2-25.8-13.8-50.7-28.2-74.7h.3l42.6,1.2,8.1-.6c3-.9,5.1-2.1,6-4.5A168.62,168.62,0,0,0,534.3,135a58.18,58.18,0,0,0,16.2,5.7c6.6.9,12.3.3,17.1-2.1a28.08,28.08,0,0,0,6.3-8.4,17.91,17.91,0,0,0,.3-10.5l-2.4-3.6.9-2.1-.6-3-1.2-2.4c3.9-2.4,9-3.9,14.7-5.4l1.2-1.5a10.07,10.07,0,0,0-1.2-7.5c-5.1-5.4-11.4-6.6-18.9-3.9-5.7,2.4-11.1,6.6-16.5,12.9l-12,1.5L537,99l-2.7-4.8a7.72,7.72,0,0,0-4.8-2.1,9.38,9.38,0,0,0-5.7,1.2,10.82,10.82,0,0,0-4.5,4.5,4.62,4.62,0,0,0-.6,3.3,27.75,27.75,0,0,0,1.5,3l2.1,2.7.6,3-3,3q-1.8,3.6,1.8,9l2.7,3.9.9,3-6,24.6a100.26,100.26,0,0,1-9.9,22.8l-38.7-3L450.9,168l-2.7-.3-2.7.6a87.16,87.16,0,0,1-10.8-19.2l-2.4,2.1a57.59,57.59,0,0,0,13.5,20.4l6.3.3a127.27,127.27,0,0,0,27.3,6l28.8.9a6.36,6.36,0,0,0,5.4-3l2.7-5.7,7.2-21.3a136.48,136.48,0,0,0,3.9-22.5c-.3-1.5-1.2-3-2.7-5.1l-2.7-4.5a2.69,2.69,0,0,1,.6-2.7l2.4-1.8,1.8-2.1a4.79,4.79,0,0,0-.9-2.4c-1.8-3.9-3-6-4.5-7.5a6.58,6.58,0,0,1,3-4.2,6.71,6.71,0,0,1,4.5-.9c3.3,1.5,5.4,4.8,6.3,9.6l-.9,5.4,1.8-.9,1.5-1.8q5.4.45,13.5-1.8l12-9.3c5.1-3,9.9-4.2,14.7-3l3.9,2.7Zm-22.8,11.7a14,14,0,0,1,7.8,1.5l2.1,2.1a4.13,4.13,0,0,1,.3,3.3l-.3.6c-2.1-2.4-5.1-3-8.7-2.1a24.62,24.62,0,0,0-8.7,3.3,5.58,5.58,0,0,1-2.7-3.3c0-1.5.6-2.4,2.4-3.9l7.8-1.5Zm-142.8,156,2.4,2.1,1.5,4.5c-3.9,2.4-5.4,7.5-4.2,15.6-1.8,0-2.7-.3-3.3-.9a15.76,15.76,0,0,1-1.8-6.3l-.6-6.6.6-5.4c.6-1.8,1.5-3.3,2.7-3.9.9-.3,1.8.3,2.7.9Zm31.5-86.1c-.6-1.5-.3-2.1.3-1.8a11.43,11.43,0,0,1,6.3,3.6l5.7,6.6q21.6,32,31.5,79.2a98.52,98.52,0,0,1,.6,26.4c-1.5,9.3-4.5,17.1-9.3,23.4l-1.2,1.5-7.2,9.3a66.18,66.18,0,0,0,1.2-16.8,205,205,0,0,0-.6-50.7,191.8,191.8,0,0,0-12-47.7L453.3,192c-3.6-7.2-5.7-12-5.7-14.4Zm-3.3,45.3a119.34,119.34,0,0,1,5.4,25.8L431.1,246a99,99,0,0,1-23.7-9.3l-21.9-13.2,1.5-1.8L416.1,201l14.7-7.8a56.29,56.29,0,0,1,8.1,14.1l5.4,15.6Zm28.5,107.7,7.5-6.6a396.17,396.17,0,0,1-7.2,40.2l-9.6,39.3a10.2,10.2,0,0,1-3.9,5.1l-5.7,3.3c.6-8.1,2.4-17.7,4.8-28.5l14.1-52.8Zm-33.6-21.9,1.8,6.6c-7.2,1.5-14.7,5.4-21.9,11.7-5.7,4.8-11.4,11.1-18,19.2-3.9,5.1-8.1,11.1-12.3,17.7l-21.3,37.2c-4.5,6.6-8.4,12.6-12.6,17.7a135.94,135.94,0,0,1-26.4,28.8,94.68,94.68,0,0,1-33.3,17.7c-9,2.1-21,1.8-35.4-.9l-1.5-.6-1.5-1.2c-.3-2.4.3-3.6,2.1-4.2l11.1-.3,5.4.9h5.7c12.3.6,24-2.7,35.4-9.6,9.3-5.7,18.6-14.1,28.2-25.5a268.74,268.74,0,0,0,18.9-27.3c4.5-7.8,9.9-17.4,15.9-28.8l17.4-27c7.5-9.9,15.3-17.7,23.1-23.1,5.1-4.8,11.4-7.5,19.2-9Zm-.9,98.1-1.8,15A231.38,231.38,0,0,0,393,455.7l-5.7,7.5.3.3h.3l6-4.5a53.48,53.48,0,0,0-3.6,16.2,83.64,83.64,0,0,0,0,17.4l1.2,17.4a153.57,153.57,0,0,1-.3,17.1l-1.5,5.1c-.9,1.8-1.5,3.6-2.7,4.5l-1.8-1.5c.9-10.8.9-19.5-.3-26.4h-.3l-.3,12.6a71.2,71.2,0,0,1-.9,12.3c-3.3-2.1-6.6-5.7-9.6-10.8l3.3-14.4c.6-6,.6-10.8-.3-15.3l-.3-.3-.3.6a57.27,57.27,0,0,1-.6,14.1l-3,13.5c-6.6-10.8-9.9-23.4-10.2-38.1-.6-14.1,1.8-26.4,6.6-36.9,2.1-2.4,5.4-3.6,9.3-4.5l10.5-1.5-2.1,2.1h2.1a203.38,203.38,0,0,0,49.5-35.4ZM398.1,272.4a3.94,3.94,0,0,1,.9-3.6l2.7-2.1,6.6-2.1-.3,2.1-.9,2.1c-.3,5.4,0,9.6,1.5,13.2a18.41,18.41,0,0,1-6.9-3.3,11.43,11.43,0,0,1-3.6-6.3Z" transform="translate(-253.42 -58.5)"/><path class="cls-4" d="M566.7,109.2a14,14,0,0,0-7.8-1.5l-7.8,1.5c-1.8,1.5-2.4,2.4-2.4,3.9a5.58,5.58,0,0,0,2.7,3.3,24.62,24.62,0,0,1,8.7-3.3c3.6-.9,6.6-.3,8.7,2.1l.3-.6a4.13,4.13,0,0,0-.3-3.3l-2.1-2.1Z" transform="translate(-253.42 -58.5)"/><path class="cls-4" d="M418.5,265.8l-2.4-2.1c-.9-.6-1.8-1.2-2.7-.9-1.2.6-2.1,2.1-2.7,3.9l-.6,5.4.6,6.6a15.76,15.76,0,0,0,1.8,6.3c.6.6,1.5.9,3.3.9-1.2-8.1.3-13.2,4.2-15.6l-1.5-4.5Z" transform="translate(-253.42 -58.5)"/><path class="cls-6" d="M447.9,175.8c-.6-.3-.9.3-.3,1.8,0,2.4,2.1,7.2,5.7,14.4l9.6,18.6a191.8,191.8,0,0,1,12,47.7,205,205,0,0,1,.6,50.7,66.18,66.18,0,0,1-1.2,16.8l7.2-9.3,1.2-1.5c4.8-6.3,7.8-14.1,9.3-23.4a98.52,98.52,0,0,0-.6-26.4Q481.5,218,459.9,186l-5.7-6.6a11.43,11.43,0,0,0-6.3-3.6Z" transform="translate(-253.42 -58.5)"/><path class="cls-4" d="M480.3,324l-7.5,6.6-14.1,52.8c-2.4,10.8-4.2,20.4-4.8,28.5l5.7-3.3a10.2,10.2,0,0,0,3.9-5.1l9.6-39.3a396.17,396.17,0,0,0,7.2-40.2Z" transform="translate(-253.42 -58.5)"/><path class="cls-4" d="M441,315.3l-1.8-6.6c-7.8,1.5-14.1,4.2-19.2,9-7.8,5.4-15.6,13.2-23.1,23.1l-17.4,27c-6,11.4-11.4,21-15.9,28.8a268.74,268.74,0,0,1-18.9,27.3c-9.6,11.4-18.9,19.8-28.2,25.5-11.4,6.9-23.1,10.2-35.4,9.6h-5.7l-5.4-.9-11.1.3c-1.8.6-2.4,1.8-2.1,4.2l1.5,1.2,1.5.6c14.4,2.7,26.4,3,35.4.9a94.68,94.68,0,0,0,33.3-17.7,135.94,135.94,0,0,0,26.4-28.8c4.2-5.1,8.1-11.1,12.6-17.7l21.3-37.2c4.2-6.6,8.4-12.6,12.3-17.7,6.6-8.1,12.3-14.4,18-19.2,7.2-6.3,14.7-10.2,21.9-11.7Z" transform="translate(-253.42 -58.5)"/><path class="cls-4" d="M436.5,421.8l1.8-15a203.38,203.38,0,0,1-49.5,35.4h-2.1l2.1-2.1-10.5,1.5c-3.9.9-7.2,2.1-9.3,4.5-4.8,10.5-7.2,22.8-6.6,36.9.3,14.7,3.6,27.3,10.2,38.1l3-13.5a57.27,57.27,0,0,0,.6-14.1l.3-.6.3.3c.9,4.5.9,9.3.3,15.3l-3.3,14.4c3,5.1,6.3,8.7,9.6,10.8a71.2,71.2,0,0,0,.9-12.3l.3-12.6h.3c1.2,6.9,1.2,15.6.3,26.4l1.8,1.5c1.2-.9,1.8-2.7,2.7-4.5l1.5-5.1a153.57,153.57,0,0,0,.3-17.1l-1.2-17.4a83.64,83.64,0,0,1,0-17.4,53.48,53.48,0,0,1,3.6-16.2l-6,4.5h-.3l-.3-.3,5.7-7.5a231.38,231.38,0,0,1,43.5-33.9Z" transform="translate(-253.42 -58.5)"/><path class="cls-4" d="M399,268.8a3.94,3.94,0,0,0-.9,3.6,11.43,11.43,0,0,0,3.6,6.3,18.41,18.41,0,0,0,6.9,3.3c-1.5-3.6-1.8-7.8-1.5-13.2l.9-2.1.3-2.1-6.6,2.1-2.7,2.1Z" transform="translate(-253.42 -58.5)"/><path class="cls-4" d="M583.8,100.8a5.59,5.59,0,0,0-2.1-4.8l-3.9-2.7c-4.8-1.2-9.6,0-14.7,3l-12,9.3q-8.1,2.25-13.5,1.8l-1.5,1.8-1.8.9.9-5.4c-.9-4.8-3-8.1-6.3-9.6a6.71,6.71,0,0,0-4.5.9,6.58,6.58,0,0,0-3,4.2c1.5,1.5,2.7,3.6,4.5,7.5a4.79,4.79,0,0,1,.9,2.4l-1.8,2.1-2.4,1.8a2.69,2.69,0,0,0-.6,2.7l2.7,4.5c1.5,2.1,2.4,3.6,2.7,5.1a136.48,136.48,0,0,1-3.9,22.5l-7.2,21.3-2.7,5.7a6.36,6.36,0,0,1-5.4,3l-28.8-.9a127.27,127.27,0,0,1-27.3-6l-6.3-.3a57.59,57.59,0,0,1-13.5-20.4l-8.7,8.1,5.7,8.7,5.1,3.3q2.7,4,1.8,6.3l-2.1-3a5.87,5.87,0,0,0-4.5-2.7l-5.7.6c-5.4,3.6-12.9,9.9-22.2,18.6-9.9,9-17.4,15.3-22.2,18.9l-7.8,5.7c-3,2.4-5.1,4.8-6,7.2l.6,2.1,1.2,1.8a90,90,0,0,0,30.6,19.8,149.29,149.29,0,0,0,16.8,6l17.1,4.8,2.7,1.2a5.38,5.38,0,0,1,2.1,1.5H425.1l-4.8,3.6,1.5,6h5.7a26,26,0,0,1,6.6-6.3c3-1.5,5.7-2.4,8.7-2.1a27.77,27.77,0,0,0-13.8,9,6.67,6.67,0,0,1,2.7,3.9,9,9,0,0,1-.9,5.4,18.3,18.3,0,0,1-3.6,4.8l1.8-6.6v-3a2.67,2.67,0,0,0-1.5-2.4c-3.3-.6-6-.3-7.8,1.2l-1.8,3-.6,3.6.6,4.2a4.28,4.28,0,0,0,1.8,3.6,39.9,39.9,0,0,0,21.3-6.9,52.32,52.32,0,0,0,15.9-16.5,7.75,7.75,0,0,0-.6-5.7l-3.6-5.1c-.6-1.2-2.1-2.1-4.5-2.1l-5.1-.3a123,123,0,0,1-56.7-24.3,33.49,33.49,0,0,0-5.1-3.6q-3.6-1.8-4.5-3.6a17.51,17.51,0,0,1,6.6,2.4l2.4-2.4a217.76,217.76,0,0,1,45.9-31.2l4.2-1.5,4.2-.9-6,5.1,1.8,2.4,1.5,3A158,158,0,0,1,452.7,243l.3,5.7,2.7,2.7c5.1,5.7,6.3,11.1,4.5,15.6-2.4,4.2-6.6,9-12.9,14.4l-.9,3.6-1.5,3c-2.4,4.8-3,10.5-2.1,17.4l3.9,21.3a207.86,207.86,0,0,1-.6,33l-3,32.7c-6.9,46.8-9,90.6-6.6,131.4l.6,3.9a5.1,5.1,0,0,0,1.8,3,10.69,10.69,0,0,0,4.5,1.8,294.83,294.83,0,0,0,31.8.6l30-3.6c-2.4-3-6-5.7-10.2-8.7l-10.8-7.2h.3c6.6,2.7,14.4,7.8,22.8,15.6l13.2-2.7a55,55,0,0,0-11.1-7.5L498,513v-.3a66.56,66.56,0,0,1,24.6,13.2,10.69,10.69,0,0,0,4.5-3,39.81,39.81,0,0,0-9.9-8.1c-7.5-4.8-16.8-7.5-27.6-8.4a74,74,0,0,0-29.4,3h-2.1l-1.8.3.9,8.7-.3.3-1.2-.9c-1.8-4.2-3-9.3-4.2-15.9l-2.1-16.5c-.6-18.9-1.2-32.7-1.2-42a268.61,268.61,0,0,1,3.6-41.1c5.4-30.6,12.6-57.3,20.7-79.8,2.7-28.2,2.7-52.5-.9-72.3q-5-32.85-18.9-55.8l-5.1-9.3c-1.8-3.6-2.7-7.2-2.4-10.2.6-1.2,1.5-1.8,3.3-1.5a24.83,24.83,0,0,1,8.7,6.6l7.5,8.7a232,232,0,0,0,54,0,2.19,2.19,0,0,0,2.1-1.8,144.58,144.58,0,0,0,7.5-25.5l3.9-27,.6-1.5,1.5-.9a87.26,87.26,0,0,0,13.8,4.5,31.59,31.59,0,0,0,15,0c3.3-.6,6-3.3,7.8-8.4l.6-5.4a6.47,6.47,0,0,0-2.7-4.8c-2.1-1.8-5.1-2.4-8.4-2.1a20.16,20.16,0,0,0-8.4,3l-1.5,1.8c-.3.9-.6,1.8,0,2.4a9.61,9.61,0,0,0,4.5,5.1l7.5-.6,6.3-3.6a3.58,3.58,0,0,1-1.5,2.7l-2.7,2.1a23.78,23.78,0,0,1-7.5,1.5,12.53,12.53,0,0,1-6.9-2.1c-2.4-2.4-3.3-5.4-2.1-8.4l-6,.6a27.12,27.12,0,0,0-6.6,3l.9-1.2a12.24,12.24,0,0,1,6-3.9l6.9-.3-2.1-1.5-1.5-2.1c-.6-1.2,0-3,1.8-4.8a19.83,19.83,0,0,1,10.2-4.5c4.2-.3,7.8,0,11.1,1.8a38.29,38.29,0,0,1,15-6Z" transform="translate(-253.42 -58.5)"/><path class="cls-2" d="M489,108.9c.6-5.4-.6-9.3-3.9-11.7-13.8.3-29.4,3-47.4,7.8l-3-4.5L432.6,99l-.9,1.5L428.1,99l-1.8,1.2-2.7,2.7-3-1.5-3.3-.3a11,11,0,0,0-5.1,4.2l-3.3,7.2H408l-1.2,3.3c-5.4,2.4-8.7,3.9-10.2,4.2l.6-4.5a12.44,12.44,0,0,0-.9-4.8,7,7,0,0,0-3.3-3.3l-5.7.3-4.2,3.6-5.4.3a9.16,9.16,0,0,0-6.3,4.8c-1.5,2.1-2.1,4.8-2.4,8.1a7.71,7.71,0,0,0,2.1,6.3,17.14,17.14,0,0,0,5.4,4.8,22.35,22.35,0,0,0,8.1,2.1,34.15,34.15,0,0,0,1.5,6.9,14.14,14.14,0,0,0,4.5,5.7c3,2.1,6.9,3,11.4,3.3a34.35,34.35,0,0,0,10.5-2.1l9.3,9.6.3-1.2,1.2-1.2a73.3,73.3,0,0,0-8.1-8.7l-1.5-1.8L402.3,150c-4.5.6-8.1-.3-10.2-3a13.13,13.13,0,0,1-3.6-12.3l-8.7-2.1a11.49,11.49,0,0,1-6.6-5.7,10.8,10.8,0,0,1,.6-6.9,10.59,10.59,0,0,1,4.5-5.1l5.1-.3a22.5,22.5,0,0,1,3.3,6.6l1.8,7.2.9-.9.3-1.2c5.7-2.4,11.4-5.1,17.4-8.1h1.5a43.37,43.37,0,0,1,3.3-8.7c1.8-3,3.6-4.8,5.4-5.7,2.4-.6,4.5,0,6.9,2.4l4.8,6c.3,0,.9-.6.9-1.5v-.9q20.7-2.25,36-.9a73.21,73.21,0,0,0-8.4,9.3c-1.8,3-3.3,5.4-3.9,8.4l2.1-.3c1.8-6.3,6.3-12.3,13.5-17.7,5.1.6,9.9,3,15,7.8l-1.5,8.1,3.3-.3a31.9,31.9,0,0,0,.3-9.3,12.07,12.07,0,0,0,2.7-6Zm-60.3-1.2-3-3,3.6-3.6c.9-.6,2.1-.3,3.3.9l3,3.3-6.9,2.4Zm-36.6,3,1.2,1.5a34,34,0,0,1,.3,9.3l-4.5,2.7a37.69,37.69,0,0,0-3.9-11.1c.6-.9,2.4-2.1,4.8-3l2.1.6Zm80.1-3.3,11.7-8.1,1.5.9.6,1.5a18.84,18.84,0,0,1-1.2,12.3l-1.2-.3-5.4-3.9-6-2.4Zm6.6-7.2-10.5,6.9a211.83,211.83,0,0,0-27.6,0l38.1-6.9Z" transform="translate(-253.42 -58.5)"/><path class="cls-4" d="M425.7,104.7l3,3,6.9-2.4-3-3.3c-1.2-1.2-2.4-1.5-3.3-.9l-3.6,3.6Z" transform="translate(-253.42 -58.5)"/><path class="cls-4" d="M393.3,112.2l-1.2-1.5-2.1-.6c-2.4.9-4.2,2.1-4.8,3a37.69,37.69,0,0,1,3.9,11.1l4.5-2.7a34,34,0,0,0-.3-9.3Z" transform="translate(-253.42 -58.5)"/><path class="cls-7" d="M483.9,99.3l-11.7,8.1,6,2.4,5.4,3.9,1.2.3a18.84,18.84,0,0,0,1.2-12.3l-.6-1.5-1.5-.9Z" transform="translate(-253.42 -58.5)"/><path class="cls-4" d="M468.3,107.1l10.5-6.9-38.1,6.9a211.83,211.83,0,0,1,27.6,0Z" transform="translate(-253.42 -58.5)"/><path class="cls-6" d="M465.9,126.9l-10.5,1.2-.3,2.4,2.7,2.4a34.48,34.48,0,0,1,8.4-2.7c.3-.3.6,0,.9.3l-.9.9-6.9,2.4,3.9,1.5,10.5.6a10.94,10.94,0,0,0,7.5-6.6l.6-.6.9-3v-1.2l1.5-8.1c-5.1-4.8-9.9-7.2-15-7.8-7.2,5.4-11.7,11.4-13.5,17.7l10.2-.6.6.3-.6.9Z" transform="translate(-253.42 -58.5)"/><path class="cls-4" d="M453.6,126.6c.6-3,2.1-5.4,3.9-8.4a73.21,73.21,0,0,1,8.4-9.3q-15.3-1.35-36,.9v.9c0,.9-.6,1.5-.9,1.5l-4.8-6c-2.4-2.4-4.5-3-6.9-2.4-1.8.9-3.6,2.7-5.4,5.7a43.37,43.37,0,0,0-3.3,8.7h-1.5c-6,3-11.7,5.7-17.4,8.1l-.3,1.2-.9.9-1.8-7.2a22.5,22.5,0,0,0-3.3-6.6l-5.1.3a10.59,10.59,0,0,0-4.5,5.1,10.8,10.8,0,0,0-.6,6.9,11.49,11.49,0,0,0,6.6,5.7l8.7,2.1a13.13,13.13,0,0,0,3.6,12.3c2.1,2.7,5.7,3.6,10.2,3l11.4-1.8,1.5,1.8a73.3,73.3,0,0,1,8.1,8.7l8.7-9.3-.9-2.4-.9.3c-.6.3-.9.3-.9-.3v-.6l.6-.9q3.6-2.25,9.9-2.7l12-7.5a10.59,10.59,0,0,1,.9-4.2l-13.5,3-2.4.3a84.72,84.72,0,0,0-18.6,11.1l.9-1.5a96.62,96.62,0,0,1,13.5-9.9,23.83,23.83,0,0,1-6.6-1.8c-3.9,3-7.8,4.8-11.7,4.8-1.2-.3-1.5-.6-1.2-.9,6.9-2.1,11.7-5.4,15-9.9l.6-1.8,1.2-1.2a4.44,4.44,0,0,1,0,3.9l-2.1,3.3a20.45,20.45,0,0,0,8.7,1.5,62.74,62.74,0,0,1,17.1-5.4Zm-21.6-15q1.35-1.35.9,0l-4.2,5.1c-1.2.6-3.3,1.5-5.7,2.7-4.5,1.8-7.8,2.1-10.2.9l-2.1-.9a29.93,29.93,0,0,0,11.7-1.5,22.36,22.36,0,0,0,9.6-6.3Zm-51.3,17.1a10.77,10.77,0,0,1-3-2.1,4.15,4.15,0,0,1-1.5-2.7c-.3-2.1.3-3.3.9-3.6l1.8-.6h1.5a9.27,9.27,0,0,1,3.6,4.5l2.1,4.8-2.1.3-3.3-.6Z" transform="translate(-253.42 -58.5)"/><path class="cls-1" d="M432.9,111.6q.45-1.35-.9,0a22.36,22.36,0,0,1-9.6,6.3,29.93,29.93,0,0,1-11.7,1.5l2.1.9c2.4,1.2,5.7.9,10.2-.9,2.4-1.2,4.5-2.1,5.7-2.7l4.2-5.1Z" transform="translate(-253.42 -58.5)"/><path class="cls-2" d="M377.7,126.6a10.77,10.77,0,0,0,3,2.1l3.3.6,2.1-.3-2.1-4.8a9.27,9.27,0,0,0-3.6-4.5h-1.5l-1.8.6c-.6.3-1.2,1.5-.9,3.6a4.15,4.15,0,0,0,1.5,2.7Zm1.5-5.1a5.58,5.58,0,0,1,3.3,2.7l1.5,3.9a10.75,10.75,0,0,1-3.3-1.2l-2.7-2.7v-1.5c.3-.9.6-1.2,1.2-1.2Z" transform="translate(-253.42 -58.5)"/><path class="cls-6" d="M382.5,124.2a5.58,5.58,0,0,0-3.3-2.7c-.6,0-.9.3-1.2,1.2v1.5l2.7,2.7a10.75,10.75,0,0,0,3.3,1.2l-1.5-3.9Z" transform="translate(-253.42 -58.5)"/><path class="cls-2" d="M443.7,142.5h-.3l-4.8,3.6a40.12,40.12,0,0,1,14.7,0l2.1,4.2a15.61,15.61,0,0,0,6.3,5.4l8.7.3a13.62,13.62,0,0,0,7.8-8.4,30,30,0,0,0,2.1-12.9l3.6-5.1-2.7-.3a10.94,10.94,0,0,1-7.5,6.6l-10.5-.6-3.9-1.5-2.4,1.2a15.92,15.92,0,0,0,5.1,2.4l8.7.6,3.9-.9,3.6-1.8-3,9.9c-1.5,4.2-3.9,6.6-6.6,7.5-3.9.6-6.6-.3-8.7-2.7a25.57,25.57,0,0,1-6-13.5l-2.1,1.2.6,5.7-8.7-.9Z" transform="translate(-253.42 -58.5)"/><path class="cls-1" d="M443.4,142.5l.3-.3,8.1-4.5,2.1-1.2,3-1.5,2.4-1.2,6.9-2.4.9-.9c-.3-.3-.6-.6-.9-.3a34.48,34.48,0,0,0-8.4,2.7l-2.7.9-1.2.9-2.1.6-12,7.5-5.1,3.9-.6.6-2.1,2.1-8.7,9.3-1.2,1.2-.3,1.2c-.6.9-.6.9-.3.6l.3-.3,1.8-2.1,8.7-8.1,2.4-2.1,3.9-3,4.8-3.6Z" transform="translate(-253.42 -58.5)"/><path class="cls-6" d="M456.9,135l-3,1.5a25.57,25.57,0,0,0,6,13.5c2.1,2.4,4.8,3.3,8.7,2.7,2.7-.9,5.1-3.3,6.6-7.5l3-9.9-3.6,1.8-3.9.9-8.7-.6a15.92,15.92,0,0,1-5.1-2.4Z" transform="translate(-253.42 -58.5)"/><path class="cls-1" d="M482.7,125.7l3-.3,11.7.3a94.93,94.93,0,0,1,21.6,5.4l-1.2-.9c-10.8-5.1-21.3-7.2-31.8-6l-3.3.3v1.2Z" transform="translate(-253.42 -58.5)"/><polygon class="cls-2" points="232.27 66.9 229.27 67.2 228.37 70.2 230.77 70.2 232.27 66.9 232.27 66.9"/><path class="cls-1" d="M484.2,128.7h-2.4l-.6.6,2.7.3,15,3.6a119.62,119.62,0,0,1,21,9.6l-.9-.9c-11.1-7.8-22.5-12.3-34.8-13.2Z" transform="translate(-253.42 -58.5)"/><path class="cls-1" d="M542.4,66l-1.8-7.5-.6.6,2.7,16.8.9,1.8h.6l.3-.3A72.32,72.32,0,0,0,542.4,66Z" transform="translate(-253.42 -58.5)"/></svg>